<?xml version="1.0" encoding="utf-8"?>
<!-- Generator: Adobe Illustrator 23.0.1, SVG Export Plug-In . SVG Version: 6.00 Build 0)  -->
<svg version="1.1" id="Layer_1" xmlns="http://www.w3.org/2000/svg" xmlns:xlink="http://www.w3.org/1999/xlink" x="0px" y="0px"
	 viewBox="0 0 800 800" style="enable-background:new 0 0 800 800;" xml:space="preserve">
<style type="text/css">
	.st0{fill:#0068B5;}
</style>
<g>
	<rect x="11.5" y="253.5" class="st0" width="56.2" height="56.2"/>
	<g>
		<path d="M66.3,546.5V344H13.1v202.6H66.3z M420.2,548.5v-49.6c-7.8,0-14.4-0.4-19.2-1.2c-5.6-0.8-9.8-2.8-12.6-5.6
			c-2.8-2.8-4.6-6.8-5.6-12c-0.8-5-1.2-11.6-1.2-19.6v-70.9h38.6V344h-38.6v-79.1h-53.4v196c0,16.6,1.4,30.6,4.2,41.8
			c2.8,11,7.6,20,14.2,26.8s15.4,11.6,26,14.6c10.8,3,24.4,4.4,40.6,4.4L420.2,548.5L420.2,548.5z M726.1,546.5V249.3h-53.4v297.2
			H726.1z M276.7,363.8c-14.8-16-35.6-24-62-24c-12.8,0-24.4,2.6-35,7.8c-10.4,5.2-19.4,12.4-26.4,21.6l-3,3.8v-3.4V344H97.6v202.6
			h53V438.6v7.4c0-1.2,0-2.4,0-3.6c0.6-19,5.2-33,14-42c9.4-9.6,20.8-14.4,33.8-14.4c15.4,0,27.2,4.8,35,14
			c7.6,9.2,11.6,22.2,11.6,38.8l0,0v0.4l0,0l0,0v107.1h53.8V431.4C299.1,402.6,291.5,379.8,276.7,363.8z M645,444.8
			c0-14.6-2.6-28.2-7.6-41c-5.2-12.6-12.4-23.8-21.4-33.4c-9.2-9.6-20.2-17-33-22.4s-27-8-42.4-8c-14.6,0-28.4,2.8-41.2,8.2
			c-12.8,5.6-24,13-33.4,22.4c-9.4,9.4-17,20.6-22.4,33.4c-5.6,12.8-8.2,26.6-8.2,41.2c0,14.6,2.6,28.4,7.8,41.2
			c5.2,12.8,12.6,24,21.8,33.4c9.2,9.4,20.6,17,33.8,22.4c13.2,5.6,27.8,8.4,43.4,8.4c45.2,0,73.3-20.6,90.1-39.8l-38.4-29.2
			c-8,9.6-27.2,22.6-51.2,22.6c-15,0-27.4-3.4-36.8-10.4c-9.4-6.8-15.8-16.4-19.2-28.2l-0.6-1.8H645L645,444.8L645,444.8z
			 M486.3,426.2c0-14.8,17-40.6,53.6-40.8c36.6,0,53.8,25.8,53.8,40.6L486.3,426.2z"/>
		<path d="M786.9,520.1c-1-2.4-2.4-4.4-4.2-6.2c-1.8-1.8-3.8-3.2-6.2-4.2s-5-1.6-7.6-1.6c-2.8,0-5.2,0.6-7.6,1.6
			c-2.4,1-4.4,2.4-6.2,4.2c-1.8,1.8-3.2,3.8-4.2,6.2s-1.6,5-1.6,7.6c0,2.8,0.6,5.2,1.6,7.6s2.4,4.4,4.2,6.2s3.8,3.2,6.2,4.2
			c2.4,1,5,1.6,7.6,1.6c2.8,0,5.2-0.6,7.6-1.6c2.4-1,4.4-2.4,6.2-4.2c1.8-1.8,3.2-3.8,4.2-6.2c1-2.4,1.6-5,1.6-7.6
			S787.9,522.5,786.9,520.1z M783.7,534.1c-0.8,2-2,3.8-3.4,5.2c-1.4,1.4-3.2,2.6-5.2,3.4c-2,0.8-4,1.2-6.4,1.2
			c-2.2,0-4.4-0.4-6.4-1.2c-2-0.8-3.8-2-5.2-3.4c-1.4-1.4-2.6-3.2-3.4-5.2c-0.8-2-1.2-4-1.2-6.4c0-2.2,0.4-4.4,1.2-6.4
			c0.8-2,2-3.8,3.4-5.2c1.4-1.4,3.2-2.6,5.2-3.4c2-0.8,4-1.2,6.4-1.2c2.2,0,4.4,0.4,6.4,1.2c2,0.8,3.8,2,5.2,3.4
			c1.4,1.4,2.6,3.2,3.4,5.2c0.8,2,1.2,4,1.2,6.4C785.1,530.1,784.5,532.1,783.7,534.1z M772.5,529.3c1.6-0.2,2.8-0.8,3.8-1.8
			c1-1,1.6-2.4,1.6-4.4c0-2.2-0.6-3.8-2-5c-1.2-1.2-3.4-1.8-6-1.8h-8.8v22.6h4.2v-9.2h3l5.6,9.2h4.4L772.5,529.3z M770.3,526.1
			c-0.6,0-1.2,0-2,0h-3v-6.4h3c0.6,0,1.2,0,2,0c0.6,0,1.2,0.2,1.8,0.4c0.6,0.2,1,0.6,1.2,1c0.2,0.4,0.4,1,0.4,1.8s-0.2,1.4-0.4,1.8
			c-0.4,0.4-0.8,0.8-1.2,1C771.5,525.9,770.9,526.1,770.3,526.1z"/>
	</g>
</g>
</svg>
