<?xml version="1.0" encoding="UTF-8"?>
<svg version="1.1" xmlns="http://www.w3.org/2000/svg" width="210" height="194">
<path d="M0 0 C0.99 0.33 1.98 0.66 3 1 C3.33 1.99 3.66 2.98 4 4 C4.45890625 4.44472656 4.9178125 4.88945312 5.390625 5.34765625 C7.47994834 7.4927625 8.4979846 9.7235725 9.75 12.4375 C10.19859375 13.38496094 10.6471875 14.33242188 11.109375 15.30859375 C12.0499493 18.15094329 12.21641928 19.29751184 11 22 C6.82142857 25 6.82142857 25 4 25 C4 25.66 4 26.32 4 27 C3.20335937 27.38671875 2.40671875 27.7734375 1.5859375 28.171875 C-5.14675208 31.38155418 -5.14675208 31.38155418 -11.375 35.4375 C-14 37 -14 37 -17.25 37.0625 C-20 36 -20 36 -21.375 33.4375 C-21.684375 32.2309375 -21.684375 32.2309375 -22 31 C-24.40313289 31.96125316 -25.73242666 32.54355137 -27.0625 34.8125 C-27.371875 35.534375 -27.68125 36.25625 -28 37 C-30.16000611 41.01143992 -32.74487399 43.82833876 -36 47 C-36.66 47.99 -37.32 48.98 -38 50 C-38.66 50 -39.32 50 -40 50 C-40.37125 50.7734375 -40.37125 50.7734375 -40.75 51.5625 C-45.44827586 60.72413793 -45.44827586 60.72413793 -48 62 C-48.93393441 63.655611 -49.80102783 65.34950522 -50.625 67.0625 C-51.07101563 67.98160156 -51.51703125 68.90070313 -51.9765625 69.84765625 C-52.31429687 70.55792969 -52.65203125 71.26820312 -53 72 C-53.66 72 -54.32 72 -55 72 C-55.2475 72.680625 -55.495 73.36125 -55.75 74.0625 C-57.24197908 77.56865083 -59.06835511 80.71620368 -61 84 C-61.66 84 -62.32 84 -63 84 C-63.2784375 85.175625 -63.2784375 85.175625 -63.5625 86.375 C-65.28147079 90.7097959 -67.70615604 94.07497503 -70.44140625 97.828125 C-72.01803168 99.90427718 -72.01803168 99.90427718 -73 102 C-72.34 102 -71.68 102 -71 102 C-70.505 100.02 -70.505 100.02 -70 98 C-68.1875 97.375 -68.1875 97.375 -66 97 C-64.515 97.99 -64.515 97.99 -63 99 C-63 99.66 -63 100.32 -63 101 C-62.45214844 101.23976563 -61.90429688 101.47953125 -61.33984375 101.7265625 C-58.4399206 103.30481783 -56.09627992 105.25941677 -53.5625 107.375 C-51.70856124 108.91694072 -49.85439911 110.45861294 -48 112 C-47.10152344 112.75539063 -46.20304687 113.51078125 -45.27734375 114.2890625 C-43.20823773 116.20021935 -43.20823773 116.20021935 -41 116 C-40.88785156 115.43796875 -40.77570313 114.8759375 -40.66015625 114.296875 C-39.90942661 111.68486892 -38.78832624 109.60528678 -37.4375 107.25 C-36.98246094 106.45078125 -36.52742188 105.6515625 -36.05859375 104.828125 C-35.70925781 104.22484375 -35.35992187 103.6215625 -35 103 C-34.34 103 -33.68 103 -33 103 C-32.731875 102.0925 -32.46375 101.185 -32.1875 100.25 C-31.09868368 97.27008166 -30.13608899 95.31409641 -28 93 C-27.34 93 -26.68 93 -26 93 C-25.88398437 92.42378906 -25.76796875 91.84757812 -25.6484375 91.25390625 C-24.94971541 88.82521561 -23.97837683 87.06599266 -22.625 84.9375 C-22.20476562 84.26589844 -21.78453125 83.59429687 -21.3515625 82.90234375 C-20 81 -20 81 -18.3984375 79.44140625 C-16.73884972 77.93926696 -16.73884972 77.93926696 -16 75 C-15.01 75 -14.02 75 -13 75 C-13.49803473 79.48231259 -14.88251104 80.88251104 -18 84 C-19.31321315 86.19439201 -20.50463144 88.43850056 -21.70703125 90.6953125 C-23.23495772 93.41880681 -25.01074657 95.86143504 -26.87109375 98.36328125 C-28.20887477 100.22129773 -28.20887477 100.22129773 -29.6875 103.375 C-31 106 -31 106 -33 107 C-34.01035486 108.72049 -34.96002724 110.47694398 -35.875 112.25 C-37.96756108 116.19582686 -40.14722026 119.55698997 -43 123 C-43.515625 124.03125 -44.03125 125.0625 -44.5625 126.125 C-45.89936742 128.79873485 -46.9256163 129.96890611 -49 132 C-49.92518065 133.18829619 -50.82651194 134.39542942 -51.70703125 135.6171875 C-52.21169922 136.30683594 -52.71636719 136.99648437 -53.23632812 137.70703125 C-54.27934524 139.14166445 -55.31847508 140.57913262 -56.35351562 142.01953125 C-59.55043102 146.37122597 -62.72974677 149.69556507 -67 153 C-67.70125 153.70125 -68.4025 154.4025 -69.125 155.125 C-70.99055161 156.99055161 -72.78237795 158.5692761 -75 160 C-75.99 160 -76.98 160 -78 160 C-78 160.66 -78 161.32 -78 162 C-82.03790008 165.20247248 -86.76970028 166.13257253 -91.671875 167.3515625 C-93.94224397 167.77842578 -93.94224397 167.77842578 -95 169 C-93.68 169.33 -92.36 169.66 -91 170 C-91 170.99 -91 171.98 -91 173 C-91.99 173 -92.98 173 -94 173 C-94 174.32 -94 175.64 -94 177 C-97 177 -97 177 -98.6875 175.5 C-99.120625 175.005 -99.55375 174.51 -100 174 C-99.01 171.03 -99.01 171.03 -98 168 C-99.32 168 -100.64 168 -102 168 C-102.103125 168.721875 -102.20625 169.44375 -102.3125 170.1875 C-103.3301755 174.35071796 -104.7347136 177.08139765 -108.23828125 179.625 C-112.99093187 181.99124189 -117.81195422 181.51457519 -123 181 C-130.52232898 178.40137726 -134.51931112 172.83246336 -138 166 C-138 165.34 -138 164.68 -138 164 C-138.66 164 -139.32 164 -140 164 C-142.69013773 157.01845208 -143.3256443 150.28109753 -143.375 142.875 C-143.38853516 142.0406543 -143.40207031 141.20630859 -143.41601562 140.34667969 C-143.3690897 133.72751677 -142.51502273 127.15521034 -138.28125 121.84375 C-137.6934375 121.4003125 -137.105625 120.956875 -136.5 120.5 C-135.61828125 119.80390625 -135.61828125 119.80390625 -134.71875 119.09375 C-131.70323038 117.17478297 -129.10486616 116.86312332 -125.625 116.875 C-124.43003906 116.87693359 -124.43003906 116.87693359 -123.2109375 116.87890625 C-121 117 -121 117 -118.25 117.8125 C-117.13625 117.9053125 -117.13625 117.9053125 -116 118 C-113.41666771 115.75041666 -113.41666771 115.75041666 -111 113 C-110.13375 112.484375 -109.2675 111.96875 -108.375 111.4375 C-105.84632157 109.90698411 -104.71040016 108.36198117 -103 106 C-102.34 106 -101.68 106 -101 106 C-100.7525 105.46375 -100.505 104.9275 -100.25 104.375 C-97.99040708 100.08177346 -95.41702269 96.41702269 -92 93 C-91.319375 91.948125 -90.63875 90.89625 -89.9375 89.8125 C-89.298125 88.884375 -88.65875 87.95625 -88 87 C-87.34 87 -86.68 87 -86 87 C-85.88398437 86.43410156 -85.76796875 85.86820312 -85.6484375 85.28515625 C-84.9316373 82.75908327 -83.90425718 80.72853332 -82.625 78.4375 C-82.20476562 77.67308594 -81.78453125 76.90867187 -81.3515625 76.12109375 C-80.06090746 74.09558599 -78.69918286 72.67664728 -77 71 C-76.22937976 69.79638912 -75.49851923 68.56625928 -74.8125 67.3125 C-74.214375 66.219375 -73.61625 65.12625 -73 64 C-72.34 64 -71.68 64 -71 64 C-70.896875 63.46375 -70.79375 62.9275 -70.6875 62.375 C-69.81907303 59.37497956 -68.44379704 56.7620465 -67 54 C-69.64 54 -72.28 54 -75 54 C-75 53.01 -75 52.02 -75 51 C-74.39671875 50.95101562 -73.7934375 50.90203125 -73.171875 50.8515625 C-72.37265625 50.77679688 -71.5734375 50.70203125 -70.75 50.625 C-69.56664063 50.52058594 -69.56664063 50.52058594 -68.359375 50.4140625 C-65.87914019 49.9787895 -64.14017625 49.31630309 -62 48 C-61.505 47.01 -61.505 47.01 -61 46 C-60.01 46 -59.02 46 -58 46 C-58.165 46.66 -58.33 47.32 -58.5 48 C-59.32980567 52.97883405 -59.61862502 58.14412495 -58 63 C-58.99 63 -59.98 63 -61 63 C-62.6875 60.5 -62.6875 60.5 -64 58 C-65.32 60.31 -66.64 62.62 -68 65 C-68.66 65 -69.32 65 -70 65 C-70.2475 65.680625 -70.495 66.36125 -70.75 67.0625 C-74.7027027 76.35135135 -74.7027027 76.35135135 -78 78 C-79.09712081 79.82190269 -80.13091967 81.68239155 -81.125 83.5625 C-81.66382813 84.57441406 -82.20265625 85.58632812 -82.7578125 86.62890625 C-83.16773438 87.41136719 -83.57765625 88.19382812 -84 89 C-84.66 89 -85.32 89 -86 89 C-86.268125 89.721875 -86.53625 90.44375 -86.8125 91.1875 C-88.84574215 96.00307352 -91.26386814 99.37708426 -95 103 C-96.051875 104.36125 -96.051875 104.36125 -97.125 105.75 C-97.74375 106.4925 -98.3625 107.235 -99 108 C-99.66 108 -100.32 108 -101 108 C-101.268125 108.598125 -101.53625 109.19625 -101.8125 109.8125 C-102.99917406 111.99847854 -104.09599113 113.41332594 -106 115 C-106.66 115 -107.32 115 -108 115 C-108.495 116.485 -108.495 116.485 -109 118 C-110.29355827 119.37195574 -111.62298702 120.71182656 -113 122 C-111.87895467 123.31587941 -110.75303035 124.62760353 -109.625 125.9375 C-108.99851563 126.66839844 -108.37203125 127.39929688 -107.7265625 128.15234375 C-106.12252286 130.08380906 -106.12252286 130.08380906 -104 131 C-103.67 130.01 -103.34 129.02 -103 128 C-101.34042232 126.98827885 -99.67218173 125.99075023 -98 125 C-95.94964827 123.16213425 -93.99554276 121.32710872 -92.0625 119.375 C-91.53543457 118.8480957 -91.00836914 118.32119141 -90.46533203 117.77832031 C-86.77923317 114.00899064 -83.75680429 110.11162916 -81.0859375 105.546875 C-80.72757813 105.03640625 -80.36921875 104.5259375 -80 104 C-79.34 104 -78.68 104 -78 104 C-77.731875 103.278125 -77.46375 102.55625 -77.1875 101.8125 C-76.00098638 99.00233617 -74.72514361 96.51583443 -73 94 C-72.34 94 -71.68 94 -71 94 C-70.62875 92.7315625 -70.62875 92.7315625 -70.25 91.4375 C-68.34733479 86.20517068 -65.95441443 81.95441443 -62 78 C-60.57763845 75.70870485 -59.29546089 73.36756645 -58 71 C-57.34 71 -56.68 71 -56 71 C-55.88527344 70.43667969 -55.77054687 69.87335938 -55.65234375 69.29296875 C-54.92145997 66.72393414 -53.86136386 64.64428823 -52.5625 62.3125 C-51.91474609 61.13107422 -51.91474609 61.13107422 -51.25390625 59.92578125 C-50 58 -50 58 -48 57 C-46.93489565 55.24063735 -46.02623787 53.4283566 -45.09765625 51.59375 C-44 50 -44 50 -41 49 C-40.27095914 47.35965807 -39.61344757 45.68698082 -39 44 C-36.86105876 39.48445739 -33.69341152 36.81311229 -29.94140625 33.6484375 C-27.84607548 31.86930352 -25.90326583 29.98256857 -24 28 C-25.1858237 24.62496331 -26.27573689 22.35277269 -29 20 C-27.5184287 15.98849407 -25.42872469 14.83595637 -21.6875 12.9375 C-18.88037542 11.49372651 -16.10964501 10.065787 -13.40234375 8.44140625 C-10.63598487 6.78159092 -7.78723456 5.4259461 -4.8671875 4.0625 C-2.88895243 2.93680975 -1.53028201 1.67285487 0 0 Z M-78 106 C-78.33 107.32 -78.66 108.64 -79 110 C-78.34 109.67 -77.68 109.34 -77 109 C-77.33 108.01 -77.66 107.02 -78 106 Z M-48 121 C-49.48145626 122.68744899 -49.48145626 122.68744899 -50.9375 124.8125 C-52.81029922 127.44208254 -54.68764546 129.7506524 -57 132 C-57.66 132.825 -58.32 133.65 -59 134.5 C-61 137 -61 137 -62.45703125 138.43359375 C-64.05057532 140.05134355 -65.36237208 141.72005488 -66.6875 143.5625 C-67.34298828 144.46162109 -67.34298828 144.46162109 -68.01171875 145.37890625 C-69.17351142 146.96818189 -69.17351142 146.96818189 -69 149 C-64.72005233 147.42530227 -62.30552481 144.16708335 -59.5 140.75 C-58.79037109 139.90888672 -58.79037109 139.90888672 -58.06640625 139.05078125 C-52.57570563 133.12192069 -52.57570563 133.12192069 -50 126 C-49.34 126 -48.68 126 -48 126 C-47.34 124.35 -46.68 122.7 -46 121 C-46.66 121 -47.32 121 -48 121 Z M-102.453125 131.37890625 C-105.33734707 136.26606032 -103.28493759 141.51342171 -101.9375 146.74609375 C-101.628125 147.81988281 -101.31875 148.89367187 -101 150 C-100.34 150 -99.68 150 -99 150 C-99.14235457 151.72945653 -99.28904382 153.45855654 -99.4375 155.1875 C-99.51871094 156.15042969 -99.59992188 157.11335938 -99.68359375 158.10546875 C-99.97666151 160.78649602 -100.42703754 163.3662986 -101 166 C-94.31816637 164.9559635 -88.2534035 163.5957524 -82 161 C-82 160.34 -82 159.68 -82 159 C-81.29875 158.7525 -80.5975 158.505 -79.875 158.25 C-76.60485452 156.82819762 -73.858878 155.12753712 -71 153 C-71 152.34 -71 151.68 -71 151 C-70.34 151 -69.68 151 -69 151 C-69 150.34 -69 149.68 -69 149 C-69.598125 149.309375 -70.19625 149.61875 -70.8125 149.9375 C-73 151 -73 151 -76 152 C-80.96859652 149.27910191 -84.91911653 145.45633358 -89.046875 141.609375 C-90.83545605 139.78802545 -90.83545605 139.78802545 -93 140 C-93 139.34 -93 138.68 -93 138 C-94.9600281 136.36323743 -94.9600281 136.36323743 -97 135 C-96.33333333 132.33333333 -95.66666667 129.66666667 -95 127 C-97.85611398 127 -100.41758661 129.64292404 -102.453125 131.37890625 Z " fill="#272324" transform="translate(150,12)"/>
<path d="M0 0 C2.97 0 5.94 0 9 0 C9 0.66 9 1.32 9 2 C9.7425 2.0825 10.485 2.165 11.25 2.25 C14.61426412 3.16752658 15.87059621 4.26219512 18 7 C18.75 9.75 18.75 9.75 19 12 C19.66 12 20.32 12 21 12 C22.00007846 15.00023538 22.12895348 17.01436164 22.1328125 20.1484375 C22.13410156 21.15390625 22.13539063 22.159375 22.13671875 23.1953125 C22.13285156 24.24460937 22.12898438 25.29390625 22.125 26.375 C22.12886719 27.4165625 22.13273437 28.458125 22.13671875 29.53125 C22.13542969 30.53929688 22.13414062 31.54734375 22.1328125 32.5859375 C22.13168457 33.5042334 22.13055664 34.4225293 22.12939453 35.36865234 C21.99979161 38.00423774 21.58452766 40.43028408 21 43 C20.34 43 19.68 43 19 43 C18.731875 44.216875 18.46375 45.43375 18.1875 46.6875 C16.4515416 53.48766808 13.33489208 56.70889115 8 61 C7.505 61.99 7.505 61.99 7 63 C3.80456844 64.649255 0.56351072 65.32510637 -2.9375 66 C-8.59470616 67.06731089 -8.59470616 67.06731089 -14 69 C-15.09166275 70.93330603 -15.09166275 70.93330603 -16 73 C-17.65071396 74.02611949 -19.31970006 75.02308143 -21 76 C-23.55829865 78.37110607 -25.82138972 80.77673715 -28 83.5 C-30 86 -30 86 -32.5 88.375 C-34.5472467 90.52460904 -35.7306906 92.0918272 -37.125 94.625 C-39 98 -39 98 -40.46484375 99.43359375 C-42.27294143 101.27849749 -43.25785722 103.14396502 -44.4375 105.4375 C-46.28831124 108.88345487 -48.18256968 111.27648402 -51 114 C-52.01559401 115.99212671 -53.01789629 117.9911515 -54 120 C-54.99 120.495 -54.99 120.495 -56 121 C-57.12224855 122.88013106 -57.12224855 122.88013106 -58.125 125.0625 C-58.47820312 125.79597656 -58.83140625 126.52945313 -59.1953125 127.28515625 C-59.46085937 127.85105469 -59.72640625 128.41695312 -60 129 C-57.36 129 -54.72 129 -52 129 C-52 129.99 -52 130.98 -52 132 C-52.59167969 132.01417969 -53.18335938 132.02835938 -53.79296875 132.04296875 C-58.32713788 132.31664617 -60.40387548 132.47997648 -63.9375 135.5625 C-64.9584375 136.7690625 -64.9584375 136.7690625 -66 138 C-66.66 138 -67.32 138 -68 138 C-67.90460938 137.33613281 -67.80921875 136.67226562 -67.7109375 135.98828125 C-67.08568867 131.00810164 -66.69767539 127.60464922 -69 123 C-69 121.68 -69 120.36 -69 119 C-68.01 119 -67.02 119 -66 119 C-65.01 121.31 -64.02 123.62 -63 126 C-62.67386719 125.38511719 -62.34773438 124.77023438 -62.01171875 124.13671875 C-61.57472656 123.32847656 -61.13773438 122.52023438 -60.6875 121.6875 C-60.25824219 120.88699219 -59.82898438 120.08648437 -59.38671875 119.26171875 C-58.08625809 117.14068573 -56.76303737 115.72552593 -55 114 C-54.22937976 112.79638912 -53.49851923 111.56625928 -52.8125 110.3125 C-52.214375 109.219375 -51.61625 108.12625 -51 107 C-50.34 107 -49.68 107 -49 107 C-48.62875 105.9790625 -48.62875 105.9790625 -48.25 104.9375 C-46.1760227 100.06365335 -43.85679911 95.69609914 -40 92 C-39.38125 91.05125 -38.7625 90.1025 -38.125 89.125 C-35.99806 85.99714706 -33.73592198 83.59912588 -31 81 C-30.278125 80.236875 -29.55625 79.47375 -28.8125 78.6875 C-27 77 -27 77 -25 77 C-24.773125 76.4225 -24.54625 75.845 -24.3125 75.25 C-22.65151778 72.40260191 -20.68475439 70.87932807 -18 69 C-17.34 69 -16.68 69 -16 69 C-15.505 67.515 -15.505 67.515 -15 66 C-12.9375 65.3125 -12.9375 65.3125 -11 65 C-11 64.34 -11 63.68 -11 63 C-11.92039063 62.62681641 -11.92039063 62.62681641 -12.859375 62.24609375 C-15.37896758 60.77939661 -16.02529177 59.67229492 -17.25 57.0625 C-17.75273437 56.02802734 -17.75273437 56.02802734 -18.265625 54.97265625 C-19 53 -19 53 -19 50 C-19.66 50 -20.32 50 -21 50 C-21 45.38 -21 40.76 -21 36 C-23.97 36.99 -26.94 37.98 -30 39 C-30 39.66 -30 40.32 -30 41 C-31.269553 41.64834654 -32.54069706 42.29357815 -33.8125 42.9375 C-34.87404297 43.47697266 -34.87404297 43.47697266 -35.95703125 44.02734375 C-38 45 -38 45 -41 46 C-41 46.66 -41 47.32 -41 48 C-42.57421875 49.296875 -42.57421875 49.296875 -44.6875 50.75 C-48.49546512 53.50169211 -51.12434766 56.30273271 -54 60 C-54.43570313 60.42023438 -54.87140625 60.84046875 -55.3203125 61.2734375 C-57.79323175 63.81536845 -59.90633985 66.62852863 -62.0625 69.4375 C-62.50916016 70.01048828 -62.95582031 70.58347656 -63.41601562 71.17382812 C-65.59234835 74.00078348 -67.57316542 76.71908658 -69 80 C-69.66 80 -70.32 80 -71 80 C-71.2371875 80.85335937 -71.474375 81.70671875 -71.71875 82.5859375 C-73.1400195 86.37310073 -75.13375703 89.38937064 -77.5 92.625 C-81.10806711 97.59429821 -81.10806711 97.59429821 -84 103 C-84.66 103 -85.32 103 -86 103 C-86.28875 103.928125 -86.5775 104.85625 -86.875 105.8125 C-88 109 -88 109 -90 112 C-90.99 112 -91.98 112 -93 112 C-92.35632481 109.04705712 -91.40722839 106.51718012 -90.0625 103.8125 C-89.72347656 103.11769531 -89.38445312 102.42289062 -89.03515625 101.70703125 C-88 100 -88 100 -86 99 C-85.17546242 97.67784677 -84.41351312 96.31621547 -83.6875 94.9375 C-79.75317149 87.50018132 -75.15931442 80.68263503 -70.0625 74 C-69.31323242 73.01 -69.31323242 73.01 -68.54882812 72 C-67.54395067 70.67226514 -66.53745253 69.34575523 -65.52929688 68.02050781 C-63.45097562 65.27462871 -61.40220303 62.50696956 -59.35571289 59.73730469 C-57.4348901 57.27582891 -55.26382288 55.14467431 -53 53 C-52.38125 52.360625 -51.7625 51.72125 -51.125 51.0625 C-38.6969697 39 -38.6969697 39 -33 39 C-33 38.34 -33 37.68 -33 37 C-31.3767313 36.3291288 -29.75132422 35.66342971 -28.125 35 C-27.22007812 34.62875 -26.31515625 34.2575 -25.3828125 33.875 C-23 33 -23 33 -21 33 C-21 31.35 -21 29.7 -21 28 C-20.34 28 -19.68 28 -19 28 C-18.9175 26.845 -18.835 25.69 -18.75 24.5 C-17.68759751 16.34534304 -13.17732453 9.35709886 -7 4 C-4.5788059 2.86006037 -2.67001563 2.43592092 0 2 C0 1.34 0 0.68 0 0 Z " fill="#221E1F" transform="translate(188,6)"/>
<path d="M0 0 C0.99 0 1.98 0 3 0 C2.50196527 4.48231259 1.11748896 5.88251104 -2 9 C-3.31321315 11.19439201 -4.50463144 13.43850056 -5.70703125 15.6953125 C-7.23495772 18.41880681 -9.01074657 20.86143504 -10.87109375 23.36328125 C-12.20887477 25.22129773 -12.20887477 25.22129773 -13.6875 28.375 C-15 31 -15 31 -17 32 C-18.01035486 33.72049 -18.96002724 35.47694398 -19.875 37.25 C-21.96756108 41.19582686 -24.14722026 44.55698997 -27 48 C-27.515625 49.03125 -28.03125 50.0625 -28.5625 51.125 C-29.89936742 53.79873485 -30.9256163 54.96890611 -33 57 C-33.92518065 58.18829619 -34.82651194 59.39542942 -35.70703125 60.6171875 C-36.21169922 61.30683594 -36.71636719 61.99648437 -37.23632812 62.70703125 C-38.27934524 64.14166445 -39.31847508 65.57913262 -40.35351562 67.01953125 C-43.55043102 71.37122597 -46.72974677 74.69556507 -51 78 C-51.70125 78.70125 -52.4025 79.4025 -53.125 80.125 C-54.99055161 81.99055161 -56.78237795 83.5692761 -59 85 C-59.99 85 -60.98 85 -62 85 C-62 85.66 -62 86.32 -62 87 C-66.03790008 90.20247248 -70.76970028 91.13257253 -75.671875 92.3515625 C-77.94224397 92.77842578 -77.94224397 92.77842578 -79 94 C-77.68 94.33 -76.36 94.66 -75 95 C-75 95.99 -75 96.98 -75 98 C-75.99 98 -76.98 98 -78 98 C-78 99.32 -78 100.64 -78 102 C-81 102 -81 102 -82.6875 100.5 C-83.120625 100.005 -83.55375 99.51 -84 99 C-83.34 97.02 -82.68 95.04 -82 93 C-83.32 93 -84.64 93 -86 93 C-86.103125 93.721875 -86.20625 94.44375 -86.3125 95.1875 C-87.3301755 99.35071796 -88.7347136 102.08139765 -92.23828125 104.625 C-96.99093187 106.99124189 -101.81195422 106.51457519 -107 106 C-114.52232898 103.40137726 -118.51931112 97.83246336 -122 91 C-122 90.34 -122 89.68 -122 89 C-122.66 89 -123.32 89 -124 89 C-126.58716898 81.1768938 -127.38750039 74.2236194 -127 66 C-125.85144531 66.04640625 -124.70289062 66.0928125 -123.51953125 66.140625 C-112.84796913 66.43788942 -103.5245583 65.93884821 -93.8359375 60.8671875 C-92 60 -92 60 -89 60 C-89 59.34 -89 58.68 -89 58 C-87 59 -87 59 -86.3671875 60.8203125 C-85.3330683 65.66261668 -84.7893415 70.04952534 -85 75 C-84.34 75 -83.68 75 -83 75 C-82.94550162 76.72880982 -82.90698312 78.45812712 -82.875 80.1875 C-82.85179687 81.15042969 -82.82859375 82.11335938 -82.8046875 83.10546875 C-83.0086456 86.12812778 -83.73125368 88.26769985 -85 91 C-83.79601562 90.6390625 -82.59203125 90.278125 -81.3515625 89.90625 C-79.77608404 89.4373576 -78.20056088 88.96861537 -76.625 88.5 C-75.8309375 88.26152344 -75.036875 88.02304688 -74.21875 87.77734375 C-73.45820312 87.55175781 -72.69765625 87.32617188 -71.9140625 87.09375 C-71.2123291 86.88427734 -70.5105957 86.67480469 -69.78759766 86.45898438 C-68 86 -68 86 -66 86 C-66 85.34 -66 84.68 -66 84 C-64.1015625 82.4921875 -64.1015625 82.4921875 -61.625 80.875 C-60.81289062 80.33617187 -60.00078125 79.79734375 -59.1640625 79.2421875 C-57 78 -57 78 -55 78 C-55 77.34 -55 76.68 -55 76 C-54.34 76 -53.68 76 -53 76 C-53 75.34 -53 74.68 -53 74 C-51.93652344 73.16275391 -51.93652344 73.16275391 -50.8515625 72.30859375 C-47.45857648 69.56166946 -45.01954208 66.5098495 -42.375 63.0625 C-41.89804688 62.45470703 -41.42109375 61.84691406 -40.9296875 61.22070312 C-38.86152777 58.55794747 -36.98802967 55.97942088 -35.2890625 53.05859375 C-34.86367187 52.37925781 -34.43828125 51.69992188 -34 51 C-33.34 51 -32.68 51 -32 51 C-31.34 49.35 -30.68 47.7 -30 46 C-32.23610296 48.15624214 -34.22182874 50.28707248 -36.125 52.75 C-36.74375 53.4925 -37.3625 54.235 -38 55 C-38.66 55 -39.32 55 -40 55 C-40.268125 55.763125 -40.53625 56.52625 -40.8125 57.3125 C-41.95134505 59.88988618 -42.81416671 61.26954864 -45 63 C-45.66 63 -46.32 63 -47 63 C-45.95892593 59.87677779 -45.28050955 59.18885786 -43 57 C-41.83516749 55.55679684 -40.69049632 54.09717337 -39.5625 52.625 C-37.07226969 49.39086614 -34.56249741 46.17749678 -32 43 C-33.59267677 38.57822633 -36.96903695 36.23959909 -40.5 33.375 C-46.90277778 28.09722222 -46.90277778 28.09722222 -49 26 C-52.09926819 26.32198966 -52.09926819 26.32198966 -55 27 C-54.67 25.68 -54.34 24.36 -54 23 C-52.1875 22.375 -52.1875 22.375 -50 22 C-49.01 22.66 -48.02 23.32 -47 24 C-47 24.66 -47 25.32 -47 26 C-46.17822266 26.35964844 -46.17822266 26.35964844 -45.33984375 26.7265625 C-42.4399206 28.30481783 -40.09627992 30.25941677 -37.5625 32.375 C-35.70856124 33.91694072 -33.85439911 35.45861294 -32 37 C-31.10152344 37.75539062 -30.20304687 38.51078125 -29.27734375 39.2890625 C-27.20823773 41.20021935 -27.20823773 41.20021935 -25 41 C-24.83177734 40.15695313 -24.83177734 40.15695313 -24.66015625 39.296875 C-23.90942661 36.68486892 -22.78832624 34.60528678 -21.4375 32.25 C-20.98246094 31.45078125 -20.52742188 30.6515625 -20.05859375 29.828125 C-19.70925781 29.22484375 -19.35992187 28.6215625 -19 28 C-18.34 28 -17.68 28 -17 28 C-16.5978125 26.63875 -16.5978125 26.63875 -16.1875 25.25 C-15.09868368 22.27008166 -14.13608899 20.31409641 -12 18 C-11.34 18 -10.68 18 -10 18 C-9.82597656 17.13568359 -9.82597656 17.13568359 -9.6484375 16.25390625 C-8.94971541 13.82521561 -7.97837683 12.06599266 -6.625 9.9375 C-6.20476562 9.26589844 -5.78453125 8.59429687 -5.3515625 7.90234375 C-4 6 -4 6 -2.3984375 4.44140625 C-0.73884972 2.93926696 -0.73884972 2.93926696 0 0 Z " fill="#262223" transform="translate(134,87)"/>
<path d="M0 0 C4.81645906 0.45290393 7.00272585 2.45651443 10.4375 5.75 C11.39140625 6.64976563 12.3453125 7.54953125 13.328125 8.4765625 C14.20984375 9.30929688 15.0915625 10.14203125 16 11 C17.97142293 12.70806491 19.9737813 14.35711998 22 16 C20.65267556 19.96518279 18.92975909 22.46721943 16.0625 25.5 C13.85468462 27.84399839 12.02958601 29.95061903 10.37109375 32.71875 C9 35 9 35 7 36 C6.26969536 37.69297894 5.54295433 39.38769142 4.84375 41.09375 C2.65784128 46.03228452 -0.27195773 50.29826156 -5 53 C-10.13925338 51.91918209 -13.01278471 49.5250202 -16.75 45.9375 C-20.09626715 42.57612932 -20.09626715 42.57612932 -24 40 C-24 39.34 -24 38.68 -24 38 C-24.639375 37.7525 -25.27875 37.505 -25.9375 37.25 C-28 36 -28 36 -28.75 33.875 C-28.8325 33.25625 -28.915 32.6375 -29 32 C-28.25492188 31.60167969 -27.50984375 31.20335937 -26.7421875 30.79296875 C-23.83159428 28.88988857 -22.21413657 27.07345434 -20.125 24.3125 C-17.67902952 21.14874005 -15.2221171 18.04916978 -12.5625 15.0625 C-8.22136202 10.16867085 -4.11891138 5.0809247 0 0 Z " fill="#D0D0D0" transform="translate(81,112)"/>
<path d="M0 0 C-0.66 2.97 -1.32 5.94 -2 9 C-1.67 8.01 -1.34 7.02 -1 6 C-0.34 6 0.32 6 1 6 C1.33 4.02 1.66 2.04 2 0 C5 1 5 1 6.38671875 3.50390625 C6.81597656 4.51324219 7.24523437 5.52257812 7.6875 6.5625 C8.12449219 7.57441406 8.56148437 8.58632813 9.01171875 9.62890625 C9.50091797 10.80259766 9.50091797 10.80259766 10 12 C9.01 12.66 8.02 13.32 7 14 C7 14.99 7 15.98 7 17 C6.34 17 5.68 17 5 17 C4.67 17.99 4.34 18.98 4 20 C-1.22222222 23 -1.22222222 23 -4 23 C-4 23.66 -4 24.32 -4 25 C-12.261959 29.59225513 -12.261959 29.59225513 -17 29 C-20 23.25 -20 23.25 -20 21 C-20.66 21 -21.32 21 -22 21 C-23.5625 18.1875 -23.5625 18.1875 -25 15 C-23.6581656 10.97449681 -21.5772427 10.11714364 -18 8 C-17.34 8 -16.68 8 -16 8 C-15.835 7.401875 -15.67 6.80375 -15.5 6.1875 C-13.17603062 2.79837799 -9.8104283 2.18462821 -6 1 C-3 0 -3 0 0 0 Z " fill="#F3F2F3" transform="translate(149,17)"/>
<path d="M0 0 C0.99 0.33 1.98 0.66 3 1 C3.495 2.485 3.495 2.485 4 4 C4.68835938 4.66708984 4.68835938 4.66708984 5.390625 5.34765625 C7.47994834 7.4927625 8.4979846 9.7235725 9.75 12.4375 C10.19859375 13.38496094 10.6471875 14.33242188 11.109375 15.30859375 C12.0499493 18.15094329 12.21641928 19.29751184 11 22 C6.82142857 25 6.82142857 25 4 25 C4 25.66 4 26.32 4 27 C3.20335937 27.38671875 2.40671875 27.7734375 1.5859375 28.171875 C-5.14675208 31.38155418 -5.14675208 31.38155418 -11.375 35.4375 C-14 37 -14 37 -17.25 37.0625 C-20 36 -20 36 -21.375 33.4375 C-21.58125 32.633125 -21.7875 31.82875 -22 31 C-24.40313289 31.96125316 -25.73242666 32.54355137 -27.0625 34.8125 C-27.371875 35.534375 -27.68125 36.25625 -28 37 C-30.16000611 41.01143992 -32.74487399 43.82833876 -36 47 C-36.66 47.99 -37.32 48.98 -38 50 C-38.66 50 -39.32 50 -40 50 C-40.2475 50.515625 -40.495 51.03125 -40.75 51.5625 C-45.44827586 60.72413793 -45.44827586 60.72413793 -48 62 C-48.93393441 63.655611 -49.80102783 65.34950522 -50.625 67.0625 C-51.29402344 68.44115234 -51.29402344 68.44115234 -51.9765625 69.84765625 C-52.31429687 70.55792969 -52.65203125 71.26820312 -53 72 C-53.66 72 -54.32 72 -55 72 C-55.2475 72.680625 -55.495 73.36125 -55.75 74.0625 C-57.24197908 77.56865083 -59.06835511 80.71620368 -61 84 C-61.66 84 -62.32 84 -63 84 C-63.226875 84.845625 -63.45375 85.69125 -63.6875 86.5625 C-65.62709107 91.64238137 -67.86467007 95.90860914 -72.8125 98.4375 C-73.534375 98.623125 -74.25625 98.80875 -75 99 C-74.34 97.35 -73.68 95.7 -73 94 C-72.34 94 -71.68 94 -71 94 C-70.7525 93.154375 -70.505 92.30875 -70.25 91.4375 C-68.34733479 86.20517068 -65.95441443 81.95441443 -62 78 C-60.57763845 75.70870485 -59.29546089 73.36756645 -58 71 C-57.34 71 -56.68 71 -56 71 C-55.82791016 70.15501953 -55.82791016 70.15501953 -55.65234375 69.29296875 C-54.92145997 66.72393414 -53.86136386 64.64428823 -52.5625 62.3125 C-52.13066406 61.52488281 -51.69882813 60.73726562 -51.25390625 59.92578125 C-50 58 -50 58 -48 57 C-46.93489565 55.24063735 -46.02623787 53.4283566 -45.09765625 51.59375 C-44 50 -44 50 -41 49 C-40.27095914 47.35965807 -39.61344757 45.68698082 -39 44 C-36.86105876 39.48445739 -33.69341152 36.81311229 -29.94140625 33.6484375 C-27.84607548 31.86930352 -25.90326583 29.98256857 -24 28 C-25.1858237 24.62496331 -26.27573689 22.35277269 -29 20 C-27.95724749 16.7558811 -26.38759509 15.39805336 -23.5625 13.6875 C-20 12 -20 12 -17 13 C-19.64 14.65 -22.28 16.3 -25 18 C-24.34 20.64 -23.68 23.28 -23 26 C-22.34 26 -21.68 26 -21 26 C-18 31.75 -18 31.75 -18 34 C-13.62297367 32.77443263 -9.30322683 31.46939453 -5 30 C-5 29.34 -5 28.68 -5 28 C-4.45730469 27.75765625 -3.91460937 27.5153125 -3.35546875 27.265625 C2.19085547 24.69107324 2.19085547 24.69107324 6 20 C3.36 19.67 0.72 19.34 -2 19 C-2 18.67 -2 18.34 -2 18 C1.3 17.67 4.6 17.34 8 17 C7.21619539 15.18408626 6.42271553 13.37234593 5.625 11.5625 C5.18414062 10.55316406 4.74328125 9.54382813 4.2890625 8.50390625 C3.24923714 5.87856453 3.24923714 5.87856453 1 5 C0.67 6.98 0.34 8.96 0 11 C-0.66 11 -1.32 11 -2 11 C-2.66 13.97 -3.32 16.94 -4 20 C-5.28497537 16.14507389 -4.4052209 14.59653164 -3.0625 10.8125 C-2.68222656 9.72582031 -2.30195313 8.63914062 -1.91015625 7.51953125 C-1.60980469 6.68808594 -1.30945313 5.85664063 -1 5 C-3.64 5.66 -6.28 6.32 -9 7 C-6.94766315 4.7522025 -5.99332739 3.9977758 -3 3 C-1.33289654 1.50014391 -1.33289654 1.50014391 0 0 Z " fill="#1D191A" transform="translate(150,12)"/>
<path d="M0 0 C3.32222925 1.42381254 5.54019768 3.47069557 8.1875 5.9375 C8.1875 6.5975 8.1875 7.2575 8.1875 7.9375 C9.1775 8.2675 10.1675 8.5975 11.1875 8.9375 C10.36425433 15.93508821 6.03887024 20.20163858 1.1875 24.9375 C-0.39166064 26.80129947 -1.94507669 28.68203421 -3.48046875 30.58203125 C-4.13982422 31.25298828 -4.13982422 31.25298828 -4.8125 31.9375 C-6.8125 31.9375 -6.8125 31.9375 -9.125 29.75 C-10.011875 28.821875 -10.89875 27.89375 -11.8125 26.9375 C-12.72 26.091875 -13.6275 25.24625 -14.5625 24.375 C-16.79851098 21.95265478 -17.47721993 21.11068633 -17.8125 17.9375 C-16.921875 16.12109375 -16.921875 16.12109375 -15.5625 14.375 C-15.12421875 13.79621094 -14.6859375 13.21742187 -14.234375 12.62109375 C-12.83587062 10.96517236 -11.3483334 9.46525007 -9.8125 7.9375 C-8.9875 6.926875 -8.1625 5.91625 -7.3125 4.875 C-3.07336957 -0.10597826 -3.07336957 -0.10597826 0 0 Z " fill="#F8F8F8" transform="translate(149.8125,60.0625)"/>
<path d="M0 0 C0.99 0 1.98 0 3 0 C2.835 0.66 2.67 1.32 2.5 2 C1.67019433 6.97883405 1.38137498 12.14412495 3 17 C2.01 17 1.02 17 0 17 C-1.6875 14.5 -1.6875 14.5 -3 12 C-4.32 14.31 -5.64 16.62 -7 19 C-7.66 19 -8.32 19 -9 19 C-9.37125 20.0209375 -9.37125 20.0209375 -9.75 21.0625 C-13.7027027 30.35135135 -13.7027027 30.35135135 -17 32 C-18.09712081 33.82190269 -19.13091967 35.68239155 -20.125 37.5625 C-20.66382813 38.57441406 -21.20265625 39.58632812 -21.7578125 40.62890625 C-22.16773438 41.41136719 -22.57765625 42.19382813 -23 43 C-23.66 43 -24.32 43 -25 43 C-25.268125 43.721875 -25.53625 44.44375 -25.8125 45.1875 C-27.84574215 50.00307352 -30.26386814 53.37708426 -34 57 C-35.051875 58.36125 -35.051875 58.36125 -36.125 59.75 C-36.74375 60.4925 -37.3625 61.235 -38 62 C-38.66 62 -39.32 62 -40 62 C-40.268125 62.598125 -40.53625 63.19625 -40.8125 63.8125 C-41.99917406 65.99847854 -43.09599113 67.41332594 -45 69 C-45.66 69 -46.32 69 -47 69 C-47.495 70.485 -47.495 70.485 -48 72 C-49.75 73.6875 -49.75 73.6875 -52 75 C-52.7425 74.979375 -53.485 74.95875 -54.25 74.9375 C-57.77844288 75.01769188 -59.88362362 76.35146416 -62.9609375 77.9765625 C-68.6484088 80.83119369 -73.78951139 81.21791188 -80 81 C-78.92249149 77.76747447 -78.15758043 77.00151268 -75.625 74.875 C-75.01914063 74.35679687 -74.41328125 73.83859375 -73.7890625 73.3046875 C-70.80999697 71.1321812 -68.19551737 70.86281393 -64.625 70.875 C-63.43003906 70.87693359 -63.43003906 70.87693359 -62.2109375 70.87890625 C-60 71 -60 71 -57.25 71.8125 C-56.13625 71.9053125 -56.13625 71.9053125 -55 72 C-52.41666771 69.75041666 -52.41666771 69.75041666 -50 67 C-49.13375 66.484375 -48.2675 65.96875 -47.375 65.4375 C-44.84632157 63.90698411 -43.71040016 62.36198117 -42 60 C-41.34 60 -40.68 60 -40 60 C-39.7525 59.46375 -39.505 58.9275 -39.25 58.375 C-36.99040708 54.08177346 -34.41702269 50.41702269 -31 47 C-30.319375 45.948125 -29.63875 44.89625 -28.9375 43.8125 C-27.9784375 42.4203125 -27.9784375 42.4203125 -27 41 C-26.34 41 -25.68 41 -25 41 C-24.88398437 40.43410156 -24.76796875 39.86820313 -24.6484375 39.28515625 C-23.9316373 36.75908327 -22.90425718 34.72853332 -21.625 32.4375 C-21.20476562 31.67308594 -20.78453125 30.90867187 -20.3515625 30.12109375 C-19.06090746 28.09558599 -17.69918286 26.67664728 -16 25 C-15.22937976 23.79638912 -14.49851923 22.56625928 -13.8125 21.3125 C-13.214375 20.219375 -12.61625 19.12625 -12 18 C-11.34 18 -10.68 18 -10 18 C-9.896875 17.46375 -9.79375 16.9275 -9.6875 16.375 C-8.81907303 13.37497956 -7.44379704 10.7620465 -6 8 C-8.64 8 -11.28 8 -14 8 C-14 7.01 -14 6.02 -14 5 C-13.39671875 4.95101562 -12.7934375 4.90203125 -12.171875 4.8515625 C-11.37265625 4.77679688 -10.5734375 4.70203125 -9.75 4.625 C-8.96109375 4.55539063 -8.1721875 4.48578125 -7.359375 4.4140625 C-4.87914019 3.9787895 -3.14017625 3.31630309 -1 2 C-0.67 1.34 -0.34 0.68 0 0 Z " fill="#201C1D" transform="translate(89,58)"/>
<path d="M0 0 C0 7.59 0 15.18 0 23 C-2.95664519 24.4783226 -5.74229737 24.06032783 -9 24 C-9 24.66 -9 25.32 -9 26 C-14.28 26.66 -19.56 27.32 -25 28 C-23.353084 23.88271001 -22.60778615 22.22585451 -19.8125 19.1875 C-19.19503906 18.50558594 -18.57757813 17.82367188 -17.94140625 17.12109375 C-17.30074219 16.42113281 -16.66007812 15.72117188 -16 15 C-14.74593381 13.58693155 -13.49579544 12.1703655 -12.25 10.75 C-11.69828125 10.12609375 -11.1465625 9.5021875 -10.578125 8.859375 C-8.95545139 6.99579124 -8.95545139 6.99579124 -7.4609375 4.875 C-5.74877478 2.6775719 -2.98043141 0 0 0 Z " fill="#FAFAFA" transform="translate(81,116)"/>
<path d="M0 0 C0 1.32 0 2.64 0 4 C-2.1875 5.4375 -2.1875 5.4375 -5 7 C-7.55829865 9.37110607 -9.82138972 11.77673715 -12 14.5 C-14 17 -14 17 -16.5 19.375 C-18.5472467 21.52460904 -19.7306906 23.0918272 -21.125 25.625 C-23 29 -23 29 -24.46484375 30.43359375 C-26.27294143 32.27849749 -27.25785722 34.14396502 -28.4375 36.4375 C-30.28831124 39.88345487 -32.18256968 42.27648402 -35 45 C-36.01559401 46.99212671 -37.01789629 48.9911515 -38 51 C-38.99 51.495 -38.99 51.495 -40 52 C-41.12224855 53.88013106 -41.12224855 53.88013106 -42.125 56.0625 C-42.47820312 56.79597656 -42.83140625 57.52945313 -43.1953125 58.28515625 C-43.46085938 58.85105469 -43.72640625 59.41695312 -44 60 C-41.36 60 -38.72 60 -36 60 C-36 60.99 -36 61.98 -36 63 C-36.59167969 63.01417969 -37.18335938 63.02835938 -37.79296875 63.04296875 C-42.32713788 63.31664617 -44.40387548 63.47997648 -47.9375 66.5625 C-48.618125 67.366875 -49.29875 68.17125 -50 69 C-50.66 69 -51.32 69 -52 69 C-51.90460938 68.33613281 -51.80921875 67.67226562 -51.7109375 66.98828125 C-51.08568867 62.00810164 -50.69767539 58.60464922 -53 54 C-53 52.68 -53 51.36 -53 50 C-52.01 50 -51.02 50 -50 50 C-48.515 53.465 -48.515 53.465 -47 57 C-46.51080078 56.07767578 -46.51080078 56.07767578 -46.01171875 55.13671875 C-45.57472656 54.32847656 -45.13773437 53.52023438 -44.6875 52.6875 C-44.25824219 51.88699219 -43.82898438 51.08648437 -43.38671875 50.26171875 C-42.08625809 48.14068573 -40.76303737 46.72552593 -39 45 C-38.22937976 43.79638912 -37.49851923 42.56625928 -36.8125 41.3125 C-36.214375 40.219375 -35.61625 39.12625 -35 38 C-34.34 38 -33.68 38 -33 38 C-32.7525 37.319375 -32.505 36.63875 -32.25 35.9375 C-30.1760227 31.06365335 -27.85679911 26.69609914 -24 23 C-23.38125 22.05125 -22.7625 21.1025 -22.125 20.125 C-19.99806 16.99714706 -17.73592198 14.59912588 -15 12 C-14.278125 11.236875 -13.55625 10.47375 -12.8125 9.6875 C-11 8 -11 8 -9 8 C-8.6596875 7.13375 -8.6596875 7.13375 -8.3125 6.25 C-6.47530093 3.10051589 -3.84497849 0 0 0 Z " fill="#1E1A1B" transform="translate(172,75)"/>
<path d="M0 0 C0.99 0 1.98 0 3 0 C2.50196527 4.48231259 1.11748896 5.88251104 -2 9 C-3.31321315 11.19439201 -4.50463144 13.43850056 -5.70703125 15.6953125 C-7.23495772 18.41880681 -9.01074657 20.86143504 -10.87109375 23.36328125 C-12.20887477 25.22129773 -12.20887477 25.22129773 -13.6875 28.375 C-15 31 -15 31 -17 32 C-18.56021826 34.69694871 -19.95174038 37.4629674 -21.3671875 40.23828125 C-23.68809611 44.1638372 -25.63290539 46.5443018 -30 48 C-30 47.34 -30 46.68 -30 46 C-32.23610296 48.15624214 -34.22182874 50.28707248 -36.125 52.75 C-36.74375 53.4925 -37.3625 54.235 -38 55 C-38.66 55 -39.32 55 -40 55 C-40.268125 55.763125 -40.53625 56.52625 -40.8125 57.3125 C-41.95134505 59.88988618 -42.81416671 61.26954864 -45 63 C-45.66 63 -46.32 63 -47 63 C-45.95892593 59.87677779 -45.28050955 59.18885786 -43 57 C-41.83516749 55.55679684 -40.69049632 54.09717337 -39.5625 52.625 C-37.07226969 49.39086614 -34.56249741 46.17749678 -32 43 C-33.59267677 38.57822633 -36.96903695 36.23959909 -40.5 33.375 C-46.90277778 28.09722222 -46.90277778 28.09722222 -49 26 C-52.09926819 26.32198966 -52.09926819 26.32198966 -55 27 C-54.67 25.68 -54.34 24.36 -54 23 C-52.1875 22.375 -52.1875 22.375 -50 22 C-49.01 22.66 -48.02 23.32 -47 24 C-47 24.66 -47 25.32 -47 26 C-46.17822266 26.35964844 -46.17822266 26.35964844 -45.33984375 26.7265625 C-42.4399206 28.30481783 -40.09627992 30.25941677 -37.5625 32.375 C-35.70856124 33.91694072 -33.85439911 35.45861294 -32 37 C-31.10152344 37.75539062 -30.20304687 38.51078125 -29.27734375 39.2890625 C-27.20823773 41.20021935 -27.20823773 41.20021935 -25 41 C-24.88785156 40.43796875 -24.77570313 39.8759375 -24.66015625 39.296875 C-23.90942661 36.68486892 -22.78832624 34.60528678 -21.4375 32.25 C-20.98246094 31.45078125 -20.52742188 30.6515625 -20.05859375 29.828125 C-19.70925781 29.22484375 -19.35992187 28.6215625 -19 28 C-18.34 28 -17.68 28 -17 28 C-16.731875 27.0925 -16.46375 26.185 -16.1875 25.25 C-15.09868368 22.27008166 -14.13608899 20.31409641 -12 18 C-11.34 18 -10.68 18 -10 18 C-9.88398437 17.42378906 -9.76796875 16.84757812 -9.6484375 16.25390625 C-8.94971541 13.82521561 -7.97837683 12.06599266 -6.625 9.9375 C-5.99464844 8.93009766 -5.99464844 8.93009766 -5.3515625 7.90234375 C-4 6 -4 6 -2.3984375 4.44140625 C-0.73884972 2.93926696 -0.73884972 2.93926696 0 0 Z " fill="#1F1B1C" transform="translate(134,87)"/>
<path d="M0 0 C-3.31563858 7.18118795 -9.0068832 13.14358567 -14.23046875 19.00390625 C-15.47970737 20.41309153 -16.70979234 21.83936904 -17.92578125 23.27734375 C-18.54839844 24.01082031 -19.17101562 24.74429688 -19.8125 25.5 C-20.37582031 26.1703125 -20.93914062 26.840625 -21.51953125 27.53125 C-23 29 -23 29 -25 29 C-24.505 20.09 -24.505 20.09 -24 11 C-22.02 10.67 -20.04 10.34 -18 10 C-18 7.69 -18 5.38 -18 3 C-15.75113762 2.49490792 -13.50086131 1.99610821 -11.25 1.5 C-9.37054688 1.08234375 -9.37054688 1.08234375 -7.453125 0.65625 C-4 0 -4 0 0 0 Z " fill="#F8F8F8" transform="translate(101,131)"/>
<path d="M0 0 C0.495 0.99 0.495 0.99 1 2 C-0.5655908 5.67913839 -2.1858543 8.23122243 -5 11 C-5.92518065 12.18829619 -6.82651194 13.39542942 -7.70703125 14.6171875 C-8.21169922 15.30683594 -8.71636719 15.99648437 -9.23632812 16.70703125 C-10.27934524 18.14166445 -11.31847508 19.57913262 -12.35351562 21.01953125 C-15.55043102 25.37122597 -18.72974677 28.69556507 -23 32 C-23.70125 32.70125 -24.4025 33.4025 -25.125 34.125 C-26.99055161 35.99055161 -28.78237795 37.5692761 -31 39 C-31.99 39 -32.98 39 -34 39 C-34 39.66 -34 40.32 -34 41 C-38.03790008 44.20247248 -42.76970028 45.13257253 -47.671875 46.3515625 C-49.94224397 46.77842578 -49.94224397 46.77842578 -51 48 C-49.68 48.33 -48.36 48.66 -47 49 C-47 49.99 -47 50.98 -47 52 C-47.99 52 -48.98 52 -50 52 C-50 53.32 -50 54.64 -50 56 C-53 56 -53 56 -54.6875 54.5 C-55.120625 54.005 -55.55375 53.51 -56 53 C-55.34 51.02 -54.68 49.04 -54 47 C-55.32 47 -56.64 47 -58 47 C-58 46.34 -58 45.68 -58 45 C-51.33333333 43.33333333 -44.66666667 41.66666667 -38 40 C-38 39.34 -38 38.68 -38 38 C-36.1015625 36.4921875 -36.1015625 36.4921875 -33.625 34.875 C-32.81289062 34.33617187 -32.00078125 33.79734375 -31.1640625 33.2421875 C-29 32 -29 32 -27 32 C-27 31.34 -27 30.68 -27 30 C-26.34 30 -25.68 30 -25 30 C-25 29.34 -25 28.68 -25 28 C-24.29101562 27.44183594 -23.58203125 26.88367188 -22.8515625 26.30859375 C-19.45857648 23.56166946 -17.01954208 20.5098495 -14.375 17.0625 C-13.65957031 16.15081055 -13.65957031 16.15081055 -12.9296875 15.22070312 C-10.86152777 12.55794747 -8.98802967 9.97942088 -7.2890625 7.05859375 C-6.86367187 6.37925781 -6.43828125 5.69992188 -6 5 C-5.34 5 -4.68 5 -4 5 C-3.67 4.01 -3.34 3.02 -3 2 C-2.01 1.34 -1.02 0.68 0 0 Z " fill="#1F1B1C" transform="translate(106,133)"/>
<path d="M0 0 C3.32222925 1.42381254 5.54019768 3.47069557 8.1875 5.9375 C8.1875 6.5975 8.1875 7.2575 8.1875 7.9375 C9.1775 8.2675 10.1675 8.5975 11.1875 8.9375 C10.36425433 15.93508821 6.03887024 20.20163858 1.1875 24.9375 C-0.39166064 26.80129947 -1.94507669 28.68203421 -3.48046875 30.58203125 C-4.13982422 31.25298828 -4.13982422 31.25298828 -4.8125 31.9375 C-6.8125 31.9375 -6.8125 31.9375 -9.125 29.75 C-10.011875 28.821875 -10.89875 27.89375 -11.8125 26.9375 C-12.72 26.091875 -13.6275 25.24625 -14.5625 24.375 C-16.79851098 21.95265478 -17.47721993 21.11068633 -17.8125 17.9375 C-16.921875 16.12109375 -16.921875 16.12109375 -15.5625 14.375 C-15.12421875 13.79621094 -14.6859375 13.21742187 -14.234375 12.62109375 C-12.83587062 10.96517236 -11.3483334 9.46525007 -9.8125 7.9375 C-8.9875 6.926875 -8.1625 5.91625 -7.3125 4.875 C-3.07336957 -0.10597826 -3.07336957 -0.10597826 0 0 Z M-5.0625 5 C-7.60476172 7.57165203 -9.61163708 10.3751202 -11.6015625 13.38671875 C-12.8125 14.9375 -12.8125 14.9375 -15.8125 16.9375 C-15.72975377 19.75087179 -15.19405522 21.48909548 -13.36328125 23.640625 C-9.93059881 27.03341461 -9.93059881 27.03341461 -5.375 27.9375 C-1.85111164 26.56232405 -0.37927667 24.52455339 1.9375 21.5625 C2.71609375 20.58539063 3.4946875 19.60828125 4.296875 18.6015625 C6.32035332 16.0242094 6.32035332 16.0242094 7.1875 12.9375 C4.5475 13.2675 1.9075 13.5975 -0.8125 13.9375 C-1.1425 10.3075 -1.4725 6.6775 -1.8125 2.9375 C-3.19835412 2.82487923 -3.19835412 2.82487923 -5.0625 5 Z " fill="#B7B5B6" transform="translate(149.8125,60.0625)"/>
<path d="M0 0 C0.99 0.33 1.98 0.66 3 1 C3.495 2.485 3.495 2.485 4 4 C4.68835938 4.66708984 4.68835938 4.66708984 5.390625 5.34765625 C7.47994834 7.4927625 8.4979846 9.7235725 9.75 12.4375 C10.19859375 13.38496094 10.6471875 14.33242188 11.109375 15.30859375 C12.0499493 18.15094329 12.21641928 19.29751184 11 22 C6.82142857 25 6.82142857 25 4 25 C4 25.66 4 26.32 4 27 C3.20335937 27.38671875 2.40671875 27.7734375 1.5859375 28.171875 C-5.14675208 31.38155418 -5.14675208 31.38155418 -11.375 35.4375 C-14 37 -14 37 -17.25 37.0625 C-20 36 -20 36 -21.375 33.6875 C-22 31 -22 31 -22 27 C-22.66 27 -23.32 27 -24 27 C-24.268125 26.401875 -24.53625 25.80375 -24.8125 25.1875 C-25.98493467 23.02775192 -27.19369282 21.64209744 -29 20 C-27.95724749 16.7558811 -26.38759509 15.39805336 -23.5625 13.6875 C-20 12 -20 12 -17 13 C-19.64 14.65 -22.28 16.3 -25 18 C-24.34 20.64 -23.68 23.28 -23 26 C-22.34 26 -21.68 26 -21 26 C-18 31.75 -18 31.75 -18 34 C-13.62297367 32.77443263 -9.30322683 31.46939453 -5 30 C-5 29.34 -5 28.68 -5 28 C-4.18595703 27.63648438 -4.18595703 27.63648438 -3.35546875 27.265625 C2.19085547 24.69107324 2.19085547 24.69107324 6 20 C3.36 19.67 0.72 19.34 -2 19 C-2 18.67 -2 18.34 -2 18 C1.3 17.67 4.6 17.34 8 17 C7.21619539 15.18408626 6.42271553 13.37234593 5.625 11.5625 C5.18414062 10.55316406 4.74328125 9.54382813 4.2890625 8.50390625 C3.24923714 5.87856453 3.24923714 5.87856453 1 5 C0.67 6.98 0.34 8.96 0 11 C-0.66 11 -1.32 11 -2 11 C-2.66 13.97 -3.32 16.94 -4 20 C-5.28497537 16.14507389 -4.4052209 14.59653164 -3.0625 10.8125 C-2.68222656 9.72582031 -2.30195313 8.63914062 -1.91015625 7.51953125 C-1.60980469 6.68808594 -1.30945313 5.85664063 -1 5 C-3.64 5.66 -6.28 6.32 -9 7 C-6.94766315 4.7522025 -5.99332739 3.9977758 -3 3 C-1.33289654 1.50014391 -1.33289654 1.50014391 0 0 Z " fill="#4A4647" transform="translate(150,12)"/>
<path d="M0 0 C3 1 3 1 4.38671875 3.50390625 C4.81597656 4.51324219 5.24523437 5.52257812 5.6875 6.5625 C6.34298828 8.08037109 6.34298828 8.08037109 7.01171875 9.62890625 C7.50091797 10.80259766 7.50091797 10.80259766 8 12 C7.01 12.66 6.02 13.32 5 14 C5 14.99 5 15.98 5 17 C4.34 17 3.68 17 3 17 C2.67 17.99 2.34 18.98 2 20 C-3.22222222 23 -3.22222222 23 -6 23 C-6 23.66 -6 24.32 -6 25 C-11.625 28 -11.625 28 -15 28 C-14.01 24.7 -13.02 21.4 -12 18 C-10.02 18 -8.04 18 -6 18 C-5.86722656 17.38511719 -5.73445312 16.77023438 -5.59765625 16.13671875 C-5.33275391 14.92435547 -5.33275391 14.92435547 -5.0625 13.6875 C-4.88847656 12.88699219 -4.71445313 12.08648437 -4.53515625 11.26171875 C-4 9 -4 9 -3 6 C-2.34 6 -1.68 6 -1 6 C-0.67 4.02 -0.34 2.04 0 0 Z " fill="#F7F7F7" transform="translate(151,17)"/>
<path d="M0 0 C-0.33 6.27 -0.66 12.54 -1 19 C-6 17 -6 17 -7 15 C-7.61875 14.690625 -8.2375 14.38125 -8.875 14.0625 C-11.13634002 12.93182999 -12.29032001 11.84645439 -14 10 C-14.886875 9.113125 -15.77375 8.22625 -16.6875 7.3125 C-17.450625 6.549375 -18.21375 5.78625 -19 5 C-15.91111478 2.94074319 -15.29064073 2.7609626 -11.8125 2.875 C-9.9253125 2.936875 -9.9253125 2.936875 -8 3 C-8 2.34 -8 1.68 -8 1 C-2.25 0 -2.25 0 0 0 Z " fill="#FBFAFA" transform="translate(75,142)"/>
<path d="M0 0 C4.38300733 2.19150367 7.56694868 4.8259883 11.25 8 C11.8996875 8.5465625 12.549375 9.093125 13.21875 9.65625 C13.83234375 10.1821875 14.4459375 10.708125 15.078125 11.25 C15.91972168 11.96929687 15.91972168 11.96929687 16.77832031 12.703125 C18 14 18 14 18 16 C15.56318413 16.50354867 13.12564561 17.00296756 10.6875 17.5 C9.99720703 17.64308594 9.30691406 17.78617188 8.59570312 17.93359375 C5.67475227 18.52625044 2.98891878 19 0 19 C0 12.73 0 6.46 0 0 Z " fill="#FAFAFA" transform="translate(84,113)"/>
<path d="M0 0 C1.65 0 3.3 0 5 0 C4.01 0.495 4.01 0.495 3 1 C3.01160156 1.79664063 3.02320312 2.59328125 3.03515625 3.4140625 C3.12478032 13.93848858 3.12478032 13.93848858 2 19 C2.70125 18.278125 3.4025 17.55625 4.125 16.8125 C6.92770745 14.00176187 9.92262792 11.50483774 13 9 C10.85421188 15.07973302 7.72296789 20.72973263 2 24 C-3.13925338 22.91918209 -6.01278471 20.5250202 -9.75 16.9375 C-13.09626715 13.57612932 -13.09626715 13.57612932 -17 11 C-17 10.34 -17 9.68 -17 9 C-17.639375 8.7525 -18.27875 8.505 -18.9375 8.25 C-21 7 -21 7 -21.75 4.875 C-21.8325 4.25625 -21.915 3.6375 -22 3 C-21.34 2.67 -20.68 2.34 -20 2 C-19.9278125 2.59554687 -19.855625 3.19109375 -19.78125 3.8046875 C-18.71591723 6.79827258 -17.18719834 7.50077569 -14.5 9.125 C-10.09111617 11.81776765 -10.09111617 11.81776765 -9 14 C-6.98330173 15.13350534 -6.98330173 15.13350534 -5 16 C-5 16.66 -5 17.32 -5 18 C-3.35 18.66 -1.7 19.32 0 20 C0 13.4 0 6.8 0 0 Z " fill="#BCBBBB" transform="translate(74,141)"/>
<path d="M0 0 C0.99 0.33 1.98 0.66 3 1 C3.33 1.99 3.66 2.98 4 4 C4.99179248 5.00814071 5.9925469 6.00750907 7 7 C9.24514211 10.48434392 11.03078811 13.61453484 10.9375 17.8125 C9.91860348 20.18992522 9.04495771 21.42695561 7 23 C6.01 23.33 5.02 23.66 4 24 C4 22 4 22 6 20 C3.36 19.67 0.72 19.34 -2 19 C-2 18.67 -2 18.34 -2 18 C1.3 17.67 4.6 17.34 8 17 C7.21619539 15.18408626 6.42271553 13.37234593 5.625 11.5625 C5.18414062 10.55316406 4.74328125 9.54382813 4.2890625 8.50390625 C3.24923714 5.87856453 3.24923714 5.87856453 1 5 C0.67 6.98 0.34 8.96 0 11 C-0.66 11 -1.32 11 -2 11 C-2.66 13.97 -3.32 16.94 -4 20 C-5.28497537 16.14507389 -4.4052209 14.59653164 -3.0625 10.8125 C-2.68222656 9.72582031 -2.30195313 8.63914062 -1.91015625 7.51953125 C-1.60980469 6.68808594 -1.30945313 5.85664063 -1 5 C-3.64 5.66 -6.28 6.32 -9 7 C-6.94766315 4.7522025 -5.99332739 3.9977758 -3 3 C-1.33289654 1.50014391 -1.33289654 1.50014391 0 0 Z " fill="#848181" transform="translate(150,12)"/>
<path d="M0 0 C0.33 0.66 0.66 1.32 1 2 C1.99 1.67 2.98 1.34 4 1 C6.33299825 0.96045766 8.66708189 0.95598268 11 1 C11.33 4.3 11.66 7.6 12 11 C9.76953125 11.71484375 9.76953125 11.71484375 7 12 C4.76171875 10.56640625 4.76171875 10.56640625 2.6875 8.5625 C1.99011719 7.90378906 1.29273438 7.24507813 0.57421875 6.56640625 C0.05472656 6.04949219 -0.46476563 5.53257813 -1 5 C-0.67 3.35 -0.34 1.7 0 0 Z " fill="#B6B5B5" transform="translate(135,76)"/>
<path d="M0 0 C0.33 0.66 0.66 1.32 1 2 C0.0625 4.125 0.0625 4.125 -1 6 C-0.34 6 0.32 6 1 6 C-0.56011183 9.4777493 -2.63172326 12.27224027 -5 15.25 C-5.70125 16.14203125 -6.4025 17.0340625 -7.125 17.953125 C-8.053125 18.96632813 -8.053125 18.96632813 -9 20 C-9.66 20 -10.32 20 -11 20 C-12.3125 17.9375 -12.3125 17.9375 -13 15 C-11.72085158 12.34288483 -10.0883417 10.08234071 -8 8 C-7.34 8 -6.68 8 -6 8 C-5.7525 7.236875 -5.505 6.47375 -5.25 5.6875 C-3.89004442 2.7635955 -2.68414174 1.69995644 0 0 Z M-6 10 C-6.33 11.32 -6.66 12.64 -7 14 C-6.34 13.67 -5.68 13.34 -5 13 C-5.33 12.01 -5.66 11.02 -6 10 Z " fill="#363334" transform="translate(78,108)"/>
<path d="M0 0 C4.16138263 -0.08159574 7.9472484 0.01751476 12 1 C12 1.99 12 2.98 12 4 C11.34 4 10.68 4 10 4 C9.855625 4.94875 9.71125 5.8975 9.5625 6.875 C9 10 9 10 8 12 C7.01 11.67 6.02 11.34 5 11 C3.8125 7.9375 3.8125 7.9375 3 5 C2.34 5 1.68 5 1 5 C0.67 3.35 0.34 1.7 0 0 Z " fill="#FAFAFA" transform="translate(126,33)"/>
<path d="M0 0 C0 0.66 0 1.32 0 2 C-2.3937297 2.98459071 -4.7897507 3.96278703 -7.1875 4.9375 C-7.86103516 5.21529297 -8.53457031 5.49308594 -9.22851562 5.77929688 C-15.32186963 8.24636215 -20.43461141 9.1391773 -27.0625 9.125 C-28.27035156 9.12757813 -29.47820313 9.13015625 -30.72265625 9.1328125 C-33.36737407 9.02563681 -35.49533692 8.78700137 -38 8 C-38 7.34 -38 6.68 -38 6 C-36.38544922 6.03480469 -36.38544922 6.03480469 -34.73828125 6.0703125 C-25.58001262 6.20497745 -17.01929422 5.75680166 -8 4 C-8 3.34 -8 2.68 -8 2 C-5.09399739 0.74335022 -3.20395416 0 0 0 Z " fill="#615F5F" transform="translate(45,145)"/>
<path d="M0 0 C2.2109885 0.42793326 3.98119242 0.99059621 6 2 C6 2.66 6 3.32 6 4 C6.54527344 4.2371875 7.09054688 4.474375 7.65234375 4.71875 C10.60315433 6.32917574 12.98704217 8.34152106 15.5625 10.5 C18.32911711 12.81239639 20.99876548 14.99917699 24 17 C24.1875 19.625 24.1875 19.625 24 22 C23.01 21.67 22.02 21.34 21 21 C20.7421875 20.43539062 20.484375 19.87078125 20.21875 19.2890625 C18.38287349 15.84090982 15.5025701 13.81092455 12.5 11.375 C6.09722222 6.09722222 6.09722222 6.09722222 4 4 C0.90073181 4.32198966 0.90073181 4.32198966 -2 5 C-1.125 1.125 -1.125 1.125 0 0 Z " fill="#605D5F" transform="translate(81,109)"/>
<path d="M0 0 C0 3 0 3 -1.1875 4.5625 C-6.1075969 8.46464582 -10.99983578 8.23530056 -17 8 C-16.67 7.01 -16.34 6.02 -16 5 C-13.10441559 3.5522078 -11.25811062 3 -8 3 C-8 2.34 -8 1.68 -8 1 C-5.07175348 0.02391783 -3.04386724 -0.08226668 0 0 Z " fill="#252122" transform="translate(198,63)"/>
<path d="M0 0 C2.10245734 0.47474843 4.20411163 0.95343562 6.30078125 1.453125 C10.82528624 2.36981197 15.40084494 2.67333104 20 3 C20 3.99 20 4.98 20 6 C18.02 6 16.04 6 14 6 C13.24758891 9.65456815 12.59950296 13.31733897 12 17 C10.35 17 8.7 17 7 17 C7.66 16.67 8.32 16.34 9 16 C9.68472665 14.11235097 9.68472665 14.11235097 10.125 11.9375 C10.29257813 11.20402344 10.46015625 10.47054687 10.6328125 9.71484375 C10.75398437 9.14894531 10.87515625 8.58304688 11 8 C11.66 8 12.32 8 13 8 C13 7.01 13 6.02 13 5 C8.71 5 4.42 5 0 5 C-0.33 3.68 -0.66 2.36 -1 1 C-0.67 0.67 -0.34 0.34 0 0 Z " fill="#C3C1C2" transform="translate(125,29)"/>
<path d="M0 0 C-1.43048694 3.18283344 -3.19017243 5.57915658 -5.5 8.1875 C-6.1084375 8.88230469 -6.716875 9.57710937 -7.34375 10.29296875 C-9 12 -9 12 -11 13 C-11 9.7 -11 6.4 -11 3 C-10.34 3 -9.68 3 -9 3 C-8.67 2.34 -8.34 1.68 -8 1 C-5.14829211 0.01665245 -3.10359391 0 0 0 Z " fill="#F1F1F1" transform="translate(157,73)"/>
<path d="M0 0 C3.465 1.485 3.465 1.485 7 3 C7 3.99 7 4.98 7 6 C6.01 6.495 6.01 6.495 5 7 C4.34444881 9.52733235 4.34444881 9.52733235 4 12 C2.68 11.34 1.36 10.68 0 10 C0 9.34 0 8.68 0 8 C-1.32 8 -2.64 8 -4 8 C-4 7.01 -4 6.02 -4 5 C-3.34 5 -2.68 5 -2 5 C-1.7834375 4.0409375 -1.7834375 4.0409375 -1.5625 3.0625 C-1 1 -1 1 0 0 Z " fill="#1C191A" transform="translate(4,127)"/>
<path d="M0 0 C0.23589844 0.59554687 0.47179688 1.19109375 0.71484375 1.8046875 C2.29134378 4.49767539 3.91644995 5.50254235 6.5625 7.125 C10.90277778 9.80555556 10.90277778 9.80555556 12 12 C14.01669827 13.13350534 14.01669827 13.13350534 16 14 C16 14.66 16 15.32 16 16 C16.99 16.33 17.98 16.66 19 17 C19.33 17.66 19.66 18.32 20 19 C22.01669827 20.13350534 22.01669827 20.13350534 24 21 C23.01 21.33 22.02 21.66 21 22 C16.05927116 19.29436278 12.0897526 15.49893988 7.953125 11.70703125 C6.10607764 9.9480915 6.10607764 9.9480915 4 9 C4 8.34 4 7.68 4 7 C3.360625 6.7525 2.72125 6.505 2.0625 6.25 C0 5 0 5 -0.8125 2.9375 C-0.874375 2.298125 -0.93625 1.65875 -1 1 C-0.67 0.67 -0.34 0.34 0 0 Z " fill="#535152" transform="translate(53,143)"/>
<path d="M0 0 C1.65 0 3.3 0 5 0 C3.68 0.33 2.36 0.66 1 1 C1 3.31 1 5.62 1 8 C0.36191406 8.06058594 -0.27617188 8.12117187 -0.93359375 8.18359375 C-1.75988281 8.26738281 -2.58617188 8.35117188 -3.4375 8.4375 C-4.67306641 8.55931641 -4.67306641 8.55931641 -5.93359375 8.68359375 C-7.98662025 8.78930815 -7.98662025 8.78930815 -9 10 C-10.99958364 10.04080783 -13.00045254 10.04254356 -15 10 C-15 10.66 -15 11.32 -15 12 C-16.60341555 12.33692785 -18.20776555 12.66941093 -19.8125 13 C-20.70582031 13.185625 -21.59914063 13.37125 -22.51953125 13.5625 C-25 14 -25 14 -28 14 C-28 12.68 -28 11.36 -28 10 C-22.06 9.67 -16.12 9.34 -10 9 C-10 8.34 -10 7.68 -10 7 C-6.7 6.67 -3.4 6.34 0 6 C0 4.02 0 2.04 0 0 Z " fill="#C3C2C2" transform="translate(82,133)"/>
<path d="M0 0 C0.66 0 1.32 0 2 0 C0.66842728 3.99471815 -0.95583385 6.13490245 -4 9 C-5.051875 10.3303125 -5.051875 10.3303125 -6.125 11.6875 C-8 14 -8 14 -10 15 C-9.65221564 18.21700528 -9.49927596 19.59150148 -6.9375 21.6875 C-6.298125 22.120625 -5.65875 22.55375 -5 23 C-5 23.66 -5 24.32 -5 25 C-8.84162002 23.75406918 -11.1145859 22.66608297 -13 19 C-12.85234454 13.24143702 -8.83849951 9.83849951 -5 6 C-4.14238965 4.94027766 -3.28852138 3.87752091 -2.4375 2.8125 C-1.633125 1.884375 -0.82875 0.95625 0 0 Z " fill="#565555" transform="translate(145,62)"/>
<path d="M0 0 C0 0.66 0 1.32 0 2 C-5.36891879 1.50130596 -10.69235173 0.97772468 -16 0 C-16 -0.66 -16 -1.32 -16 -2 C-29.02609954 -1.31530883 -29.02609954 -1.31530883 -42 0 C-33.67603719 -8.32396281 -10.18939628 -2.59366451 0 0 Z " fill="#7F7D7D" transform="translate(210,40)"/>
<path d="M0 0 C0.99 0.33 1.98 0.66 3 1 C3.33 1.99 3.66 2.98 4 4 C4.66 4.33 5.32 4.66 6 5 C6 5.99 6 6.98 6 8 C5.01 8.33 4.02 8.66 3 9 C2.01 10.485 2.01 10.485 1 12 C0.34 12 -0.32 12 -1 12 C-1 10.68 -1 9.36 -1 8 C-1.99 7.67 -2.98 7.34 -4 7 C-3.43628586 3.73045798 -2.50037734 2.17424117 0 0 Z " fill="#1E1B1C" transform="translate(204,63)"/>
<path d="M0 0 C0.66 0.33 1.32 0.66 2 1 C1.67 1.66 1.34 2.32 1 3 C0.34 3 -0.32 3 -1 3 C-1.2475 3.515625 -1.495 4.03125 -1.75 4.5625 C-6.44827586 13.72413793 -6.44827586 13.72413793 -9 15 C-9.66 15.99 -10.32 16.98 -11 18 C-11.6875 15.6875 -11.6875 15.6875 -12 13 C-10.8125 11.625 -10.8125 11.625 -9 10 C-8.32933889 8.82634306 -7.6857491 7.63700719 -7.0625 6.4375 C-5.4535168 3.49801146 -4.26312341 2.12521497 -1 1 C-0.67 0.67 -0.34 0.34 0 0 Z " fill="#201D1D" transform="translate(111,59)"/>
<path d="M0 0 C0 0.99 0 1.98 0 3 C0.99 3 1.98 3 3 3 C3.33 3.99 3.66 4.98 4 6 C2.68 6 1.36 6 0 6 C-0.33 7.32 -0.66 8.64 -1 10 C-1.99 10 -2.98 10 -4 10 C-4.12375 9.360625 -4.2475 8.72125 -4.375 8.0625 C-4.684375 7.0415625 -4.684375 7.0415625 -5 6 C-5.66 5.67 -6.32 5.34 -7 5 C-7 4.34 -7 3.68 -7 3 C-4.4385343 0.70351351 -3.52032428 0 0 0 Z " fill="#1E191C" transform="translate(177,1)"/>
<path d="M0 0 C0.66 0 1.32 0 2 0 C1.52406444 4.28342007 -0.94761685 6.15573389 -4 9 C-6.67179526 11.60966048 -8.92570221 13.88855331 -11 17 C-11.66 17 -12.32 17 -13 17 C-14.625 14.5 -14.625 14.5 -16 12 C-15.10925781 12.11214844 -14.21851563 12.22429687 -13.30078125 12.33984375 C-9.82914194 12.31995655 -9.82914194 12.31995655 -7.48046875 9.62890625 C-6.72378906 8.61699219 -5.96710938 7.60507813 -5.1875 6.5625 C-4.41792969 5.55316406 -3.64835938 4.54382813 -2.85546875 3.50390625 C-2.24316406 2.67761719 -1.63085938 1.85132812 -1 1 C-0.67 0.67 -0.34 0.34 0 0 Z " fill="#5A5859" transform="translate(156,75)"/>
<path d="M0 0 C-0.33 2.64 -0.66 5.28 -1 8 C-4 8 -4 8 -6.6875 5.625 C-9 3 -9 3 -9 1 C-5.846632 0.29925156 -3.27275026 0 0 0 Z " fill="#F3F3F3" transform="translate(144,79)"/>
<path d="M0 0 C0 4.05345102 -1.58160112 5.8215329 -4 9 C-4.99 9.33 -5.98 9.66 -7 10 C-7.69658363 11.65438613 -8.36096883 13.32254318 -9 15 C-10.5 16.8125 -10.5 16.8125 -12 18 C-12.66 18 -13.32 18 -14 18 C-12.95765642 14.87296927 -12.28026889 14.19422101 -10 12 C-8.81552495 10.51402222 -7.64983512 9.01294095 -6.5 7.5 C-4.46325036 4.82006626 -2.44056206 2.32151025 0 0 Z " fill="#4F4E4E" transform="translate(101,132)"/>
<path d="M0 0 C4.33088264 0.32080612 6.96189817 3.16904148 10 6 C10 6.66 10 7.32 10 8 C10.99 8.33 11.98 8.66 13 9 C12.625 11.4375 12.625 11.4375 12 14 C11.01 14.495 11.01 14.495 10 15 C9.773125 13.948125 9.54625 12.89625 9.3125 11.8125 C7.93426287 6.98378267 5.03082039 4.15262779 0.6875 1.6875 C0.130625 1.460625 -0.42625 1.23375 -1 1 C-0.67 0.67 -0.34 0.34 0 0 Z " fill="#595757" transform="translate(148,60)"/>
<path d="M0 0 C0.99 0.33 1.98 0.66 3 1 C3.75 3.75 3.75 3.75 4 7 C1.81567858 9.88642473 0.44696406 10.85101198 -3 12 C-3 10 -3 10 -1 8 C-3.64 7.67 -6.28 7.34 -9 7 C-9 6.67 -9 6.34 -9 6 C-5.7 5.67 -2.4 5.34 1 5 C0.67 3.35 0.34 1.7 0 0 Z " fill="#A19FA0" transform="translate(157,24)"/>
<path d="M0 0 C0 0.66 0 1.32 0 2 C-6.24273068 4.4793824 -11.28299653 5.31985731 -18 5 C-18 4.34 -18 3.68 -18 3 C-16.75283203 2.80083984 -16.75283203 2.80083984 -15.48046875 2.59765625 C-14.39378906 2.42105469 -13.30710937 2.24445313 -12.1875 2.0625 C-11.10855469 1.88847656 -10.02960937 1.71445313 -8.91796875 1.53515625 C-0.54744526 0 -0.54744526 0 0 0 Z " fill="#5F5C5D" transform="translate(27,136)"/>
<path d="M0 0 C0.99 0.33 1.98 0.66 3 1 C1.33333333 2.66666667 -0.33333333 4.33333333 -2 6 C-2.825 6.886875 -3.65 7.77375 -4.5 8.6875 C-6.96992246 10.97217828 -8.82133822 12.00099201 -12 13 C-10.64540266 8.44362714 -9.06859347 7.27084286 -5 5 C-3.2958946 3.37163262 -1.61974559 1.71230248 0 0 Z " fill="#261E22" transform="translate(138,58)"/>
<path d="M0 0 C3.465 1.98 3.465 1.98 7 4 C7 4.99 7 5.98 7 7 C4.69 7.33 2.38 7.66 0 8 C0 5.36 0 2.72 0 0 Z " fill="#FAFAFA" transform="translate(150,64)"/>
<path d="M0 0 C0.33 0.66 0.66 1.32 1 2 C-1.85793316 4.85793316 -4.14665584 4.40799941 -8.125 4.625 C-9.40632813 4.69976562 -10.68765625 4.77453125 -12.0078125 4.8515625 C-12.99523437 4.90054688 -13.98265625 4.94953125 -15 5 C-15 4.34 -15 3.68 -15 3 C-7.575 1.515 -7.575 1.515 0 0 Z " fill="#C0BFBF" transform="translate(102,128)"/>
<path d="M0 0 C0.33 0.66 0.66 1.32 1 2 C0.09522263 3.46573934 -0.82434141 4.92235756 -1.75 6.375 C-2.26046875 7.18710938 -2.7709375 7.99921875 -3.296875 8.8359375 C-5.0673335 11.08555679 -6.36907419 11.95906848 -9 13 C-7.47987323 7.59510481 -3.72614782 4.01507372 0 0 Z " fill="#504D4E" transform="translate(86,150)"/>
<path d="M0 0 C1.09658936 3.28976808 0.79953138 4.71303767 0 8 C0.825 8.61875 1.65 9.2375 2.5 9.875 C3.325 10.57625 4.15 11.2775 5 12 C5 12.66 5 13.32 5 14 C1.15837998 12.75406918 -1.1145859 11.66608297 -3 8 C-2.7434556 4.49389321 -1.9814066 2.9721099 0 0 Z " fill="#4C4849" transform="translate(135,73)"/>
<path d="M0 0 C0.625 1.875 0.625 1.875 1 4 C0.34 4.66 -0.32 5.32 -1 6 C-1.66 6 -2.32 6 -3 6 C-3.99 6.66 -4.98 7.32 -6 8 C-6.33 7.34 -6.66 6.68 -7 6 C-3.375 1.125 -3.375 1.125 0 0 Z " fill="#1A1718" transform="translate(56,135)"/>
<path d="M0 0 C0 0.66 0 1.32 0 2 C-5.36891879 1.50130596 -10.69235173 0.97772468 -16 0 C-16 -0.33 -16 -0.66 -16 -1 C-10.31150252 -2.49697302 -5.58190932 -1.3348044 0 0 Z " fill="#545152" transform="translate(210,40)"/>
<path d="M0 0 C0.99 0.33 1.98 0.66 3 1 C2.43410156 1.31453125 1.86820313 1.6290625 1.28515625 1.953125 C0.55167969 2.38109375 -0.18179688 2.8090625 -0.9375 3.25 C-2.03384766 3.87648438 -2.03384766 3.87648438 -3.15234375 4.515625 C-5.31857318 6.25593617 -5.63594751 7.29561004 -6 10 C-6.66 10 -7.32 10 -8 10 C-8.33 8.68 -8.66 7.36 -9 6 C-7.57140593 4.96674014 -6.13177617 3.94872366 -4.6875 2.9375 C-3.88699219 2.36902344 -3.08648437 1.80054687 -2.26171875 1.21484375 C-1.51535156 0.81394531 -0.76898438 0.41304687 0 0 Z " fill="#383636" transform="translate(130,24)"/>
<path d="M0 0 C2.2109885 0.42793326 3.98119242 0.99059621 6 2 C6 2.66 6 3.32 6 4 C6.99 4.33 7.98 4.66 9 5 C8.01 5.33 7.02 5.66 6 6 C5.34 5.34 4.68 4.68 4 4 C0.90073181 4.32198966 0.90073181 4.32198966 -2 5 C-1.125 1.125 -1.125 1.125 0 0 Z " fill="#3F3839" transform="translate(81,109)"/>
<path d="M0 0 C0.33 0.66 0.66 1.32 1 2 C0.22265625 3.7265625 0.22265625 3.7265625 -0.9375 5.625 C-1.618125 6.73875 -2.29875 7.8525 -3 9 C-3.99 9 -4.98 9 -6 9 C-4.68775452 5.06326356 -3.08089673 2.77280706 0 0 Z " fill="#272124" transform="translate(131,125)"/>
<path d="M0 0 C3.96 0 7.92 0 12 0 C12 0.33 12 0.66 12 1 C10.56445975 1.50559908 9.1264798 2.0042749 7.6875 2.5 C6.48673828 2.91765625 6.48673828 2.91765625 5.26171875 3.34375 C3 4 3 4 0 4 C0 2.68 0 1.36 0 0 Z " fill="#AEACAD" transform="translate(54,143)"/>
<path d="M0 0 C0.33 0.66 0.66 1.32 1 2 C1.66 2.33 2.32 2.66 3 3 C1.68 4.32 0.36 5.64 -1 7 C-1.99 6.34 -2.98 5.68 -4 5 C-2.68 3.35 -1.36 1.7 0 0 Z " fill="#151414" transform="translate(90,152)"/>
<path d="M0 0 C0.99 0.33 1.98 0.66 3 1 C1.37660195 2.70884005 -0.29319053 4.37446717 -2 6 C-2.66 6 -3.32 6 -4 6 C-5.625 3.5 -5.625 3.5 -7 1 C-5.5459375 1.0309375 -5.5459375 1.0309375 -4.0625 1.0625 C-1.12534105 1.35618499 -1.12534105 1.35618499 0 0 Z " fill="#433C3D" transform="translate(147,86)"/>
<path d="M0 0 C2.5654594 2.5654594 2.54046087 4.47686668 3 8 C1.35 8.33 -0.3 8.66 -2 9 C-1.34 6.03 -0.68 3.06 0 0 Z " fill="#CBCACA" transform="translate(144,79)"/>
<path d="M0 0 C0.66 0.66 1.32 1.32 2 2 C-0.3125 4.5 -0.3125 4.5 -3 7 C-3.99 7 -4.98 7 -6 7 C-4.60667426 3.63279613 -3.0210714 2.0140476 0 0 Z " fill="#1A1717" transform="translate(128,69)"/>
<path d="M0 0 C3 1 3 1 4.75 3.9375 C5.1625 4.948125 5.575 5.95875 6 7 C5.67 7.66 5.34 8.32 5 9 C1.7457985 6.16569547 0.4793247 4.31392226 0 0 Z " fill="#524F4F" transform="translate(153,16)"/>
<path d="M0 0 C-1.75 4.875 -1.75 4.875 -4 6 C-4.66 6.99 -5.32 7.98 -6 9 C-6.33 7.35 -6.66 5.7 -7 4 C-2.25 0 -2.25 0 0 0 Z " fill="#292728" transform="translate(106,68)"/>
<path d="M0 0 C3 3.75 3 3.75 3 6 C3.66 6 4.32 6 5 6 C5.66 7.98 6.32 9.96 7 12 C6.01 11.67 5.02 11.34 4 11 C4 9.68 4 8.36 4 7 C3.34 7 2.68 7 2 7 C0.5393715 4.35261084 0 3.10551666 0 0 Z " fill="#716E6F" transform="translate(124,32)"/>
<path d="M0 0 C3.63 0 7.26 0 11 0 C11 0.99 11 1.98 11 3 C9.02 3 7.04 3 5 3 C5 2.34 5 1.68 5 1 C3.35 1 1.7 1 0 1 C0 0.67 0 0.34 0 0 Z " fill="#B9B8B8" transform="translate(134,32)"/>
<path d="M0 0 C0.33 0.99 0.66 1.98 1 3 C-4.75 7 -4.75 7 -7 7 C-7.33 7.66 -7.66 8.32 -8 9 C-8 8.01 -8 7.02 -8 6 C-7.05125 5.7525 -6.1025 5.505 -5.125 5.25 C-1.91306809 4.3142923 -1.91306809 4.3142923 -0.625 1.875 C-0.41875 1.25625 -0.2125 0.6375 0 0 Z " fill="#443D3E" transform="translate(161,30)"/>
<path d="M0 0 C1.98 0.99 1.98 0.99 4 2 C4 3.65 4 5.3 4 7 C3.01 6.67 2.02 6.34 1 6 C0.67 4.02 0.34 2.04 0 0 Z " fill="#4A4748" transform="translate(101,124)"/>
<path d="M0 0 C-1 2 -2 4 -3 6 C-4.32 5.34 -5.64 4.68 -7 4 C-2.25 0 -2.25 0 0 0 Z " fill="#181516" transform="translate(152,98)"/>
<path d="M0 0 C-2 2 -2 2 -4.625 2.125 C-5.40875 2.08375 -6.1925 2.0425 -7 2 C-7 2.66 -7 3.32 -7 4 C-7.66 4 -8.32 4 -9 4 C-8 1 -8 1 -5.625 -0.25 C-3 -1 -3 -1 0 0 Z " fill="#636061" transform="translate(190,67)"/>
<path d="M0 0 C0.33 0.66 0.66 1.32 1 2 C-3.455 2.495 -3.455 2.495 -8 3 C-8 2.34 -8 1.68 -8 1 C-5.07175348 0.02391783 -3.04386724 -0.08226668 0 0 Z " fill="#676566" transform="translate(198,63)"/>
<path d="M0 0 C-0.33 0.99 -0.66 1.98 -1 3 C-4.5625 4.1875 -4.5625 4.1875 -8 5 C-5.72541886 1.64228499 -4.30291326 0 0 0 Z " fill="#504E4E" transform="translate(141,19)"/>
<path d="M0 0 C1.32 0 2.64 0 4 0 C3.1875 1.9375 3.1875 1.9375 2 4 C1.01 4.33 0.02 4.66 -1 5 C-0.67 3.35 -0.34 1.7 0 0 Z " fill="#252122" transform="translate(92,149)"/>
<path d="M0 0 C0 3.10551666 -0.5393715 4.35261084 -2 7 C-3.32 6.67 -4.64 6.34 -6 6 C-4.02 4.02 -2.04 2.04 0 0 Z " fill="#676464" transform="translate(101,132)"/>
<path d="M0 0 C-0.33 0.99 -0.66 1.98 -1 3 C-3.31 3.33 -5.62 3.66 -8 4 C-5.57415142 1.34311822 -3.76063134 0 0 0 Z " fill="#615F60" transform="translate(153,37)"/>
</svg>
